<svg width="21" height="19" viewBox="0 0 21 19" fill="none" xmlns="http://www.w3.org/2000/svg">
<path fill-rule="evenodd" clip-rule="evenodd" d="M16.2204 0.294804C14.4029 -0.288409 12.0739 -0.0542785 10.4693 1.43017C8.85713 0.010318 6.6088 -0.301751 4.75819 0.295177C0.536944 1.65407 -0.763559 6.52399 0.413823 10.1999C1.36124 13.1486 3.40461 15.3272 5.38108 16.7568C6.37322 17.4744 7.36746 18.0175 8.23464 18.3845C9.06894 18.7376 9.88442 18.97 10.4949 18.97C11.1086 18.97 11.9296 18.7317 12.766 18.3745C13.6366 18.0026 14.635 17.4539 15.6295 16.7328C17.6086 15.2979 19.6542 13.1189 20.5741 10.1964C21.7496 6.51906 20.4385 1.65283 16.2204 0.294804ZM14.3346 4.01695C13.7852 3.96051 13.2941 4.36013 13.2377 4.90952C13.1812 5.45892 13.5808 5.95004 14.1302 6.00648C14.4817 6.04259 14.7196 6.18884 14.876 6.38661C15.0389 6.59255 15.166 6.92373 15.15 7.40018C15.1315 7.95215 15.5639 8.41463 16.1159 8.43316C16.6679 8.45168 17.1303 8.01923 17.1489 7.46726C17.1779 6.60271 16.95 5.78489 16.4448 5.14607C15.9332 4.4991 15.1901 4.10484 14.3346 4.01695Z" fill="url(#paint0_linear_1695_9498)"/>
<defs>
<linearGradient id="paint0_linear_1695_9498" x1="0" y1="9.48499" x2="20.9855" y2="9.48499" gradientUnits="userSpaceOnUse">
<stop stop-color="white"/>
<stop offset="1" stop-color="white"/>
</linearGradient>
</defs>
</svg>
