<svg width="460" height="343" viewBox="0 0 460 343" fill="none" xmlns="http://www.w3.org/2000/svg">
<mask id="mask0_1749_7561" style="mask-type:alpha" maskUnits="userSpaceOnUse" x="0" y="0" width="460" height="343">
<rect width="460" height="343" rx="24" fill="#161A42"/>
</mask>
<g mask="url(#mask0_1749_7561)">
<g opacity="0.3" filter="url(#filter0_f_1749_7561)">
<circle cx="51" cy="51" r="51" transform="matrix(-0.980551 -0.196262 -0.196262 0.980551 68.2109 47.8623)" fill="#A22DFF"/>
</g>
<path d="M-11 168H22V205C22 223.225 7.2254 238 -11 238V238V168Z" fill="url(#paint0_linear_1749_7561)"/>
<circle cx="440.578" cy="45.2558" r="24.2859" transform="rotate(11.3185 440.578 45.2558)" fill="url(#paint1_linear_1749_7561)"/>
<circle cx="442.372" cy="46.4322" r="26.7095" transform="rotate(-168.682 442.372 46.4322)" fill="url(#paint2_linear_1749_7561)"/>
<circle cx="461.196" cy="131.414" r="33.5" transform="rotate(11.3185 461.196 131.414)" fill="url(#paint3_linear_1749_7561)"/>
<circle cx="61.1428" cy="61.7448" r="11" transform="rotate(11.3185 61.1428 61.7448)" fill="url(#paint4_linear_1749_7561)"/>
<circle cx="396.872" cy="108.851" r="4" transform="rotate(11.3185 396.872 108.851)" fill="#555D75"/>
<circle cx="52.1137" cy="122.148" r="4" transform="rotate(11.3185 52.1137 122.148)" fill="#555D75"/>
<circle cx="-8.12135" cy="85.3014" r="33.5" transform="rotate(-168.682 -8.12135 85.3014)" fill="url(#paint5_linear_1749_7561)"/>
<circle cx="416.59" cy="190.591" r="9" transform="rotate(-168.682 416.59 190.591)" fill="url(#paint6_linear_1749_7561)"/>
<g opacity="0.5" filter="url(#filter1_f_1749_7561)">
<circle cx="37.5" cy="37.5" r="37.5" transform="matrix(-0.980551 -0.196262 -0.196262 0.980551 490.227 127.536)" fill="#FFA336"/>
</g>
<g opacity="0.5" filter="url(#filter2_f_1749_7561)">
<circle cx="25.2422" cy="25.2422" r="25.2422" transform="matrix(-0.980551 -0.196262 -0.196262 0.980551 43.4102 177.947)" fill="#F857A6"/>
</g>
<g opacity="0.5" filter="url(#filter3_f_1749_7561)">
<circle cx="25.2422" cy="25.2422" r="25.2422" transform="matrix(-0.980551 -0.196262 -0.196262 0.980551 59.4102 -22.0918)" fill="#FFA336"/>
</g>
<g opacity="0.5" filter="url(#filter4_f_1749_7561)">
<circle cx="25.2422" cy="25.2422" r="25.2422" transform="matrix(-0.980551 -0.196262 -0.196262 0.980551 460.41 -0.0917969)" fill="#FFA336"/>
</g>
</g>
<defs>
<filter id="filter0_f_1749_7561" x="-121.816" y="-42.1484" width="260.02" height="260.02" filterUnits="userSpaceOnUse" color-interpolation-filters="sRGB">
<feFlood flood-opacity="0" result="BackgroundImageFix"/>
<feBlend mode="normal" in="SourceGraphic" in2="BackgroundImageFix" result="shape"/>
<feGaussianBlur stdDeviation="39.5" result="effect1_foregroundBlur_1749_7561"/>
</filter>
<filter id="filter1_f_1749_7561" x="329.59" y="40.4395" width="233.012" height="233.015" filterUnits="userSpaceOnUse" color-interpolation-filters="sRGB">
<feFlood flood-opacity="0" result="BackgroundImageFix"/>
<feBlend mode="normal" in="SourceGraphic" in2="BackgroundImageFix" result="shape"/>
<feGaussianBlur stdDeviation="39.5" result="effect1_foregroundBlur_1749_7561"/>
</filter>
<filter id="filter2_f_1749_7561" x="-90.543" y="93.4971" width="208.496" height="208.494" filterUnits="userSpaceOnUse" color-interpolation-filters="sRGB">
<feFlood flood-opacity="0" result="BackgroundImageFix"/>
<feBlend mode="normal" in="SourceGraphic" in2="BackgroundImageFix" result="shape"/>
<feGaussianBlur stdDeviation="39.5" result="effect1_foregroundBlur_1749_7561"/>
</filter>
<filter id="filter3_f_1749_7561" x="-74.543" y="-106.542" width="208.496" height="208.494" filterUnits="userSpaceOnUse" color-interpolation-filters="sRGB">
<feFlood flood-opacity="0" result="BackgroundImageFix"/>
<feBlend mode="normal" in="SourceGraphic" in2="BackgroundImageFix" result="shape"/>
<feGaussianBlur stdDeviation="39.5" result="effect1_foregroundBlur_1749_7561"/>
</filter>
<filter id="filter4_f_1749_7561" x="326.457" y="-84.542" width="208.496" height="208.494" filterUnits="userSpaceOnUse" color-interpolation-filters="sRGB">
<feFlood flood-opacity="0" result="BackgroundImageFix"/>
<feBlend mode="normal" in="SourceGraphic" in2="BackgroundImageFix" result="shape"/>
<feGaussianBlur stdDeviation="39.5" result="effect1_foregroundBlur_1749_7561"/>
</filter>
<linearGradient id="paint0_linear_1749_7561" x1="-1.93243" y1="168" x2="-29.6933" y2="201.927" gradientUnits="userSpaceOnUse">
<stop stop-color="#F857A6"/>
<stop offset="1" stop-color="#DDFF95"/>
</linearGradient>
<linearGradient id="paint1_linear_1749_7561" x1="416.293" y1="45.2558" x2="464.864" y2="45.2558" gradientUnits="userSpaceOnUse">
<stop stop-color="#1CD8D2"/>
<stop offset="1" stop-color="#93EDC7"/>
</linearGradient>
<linearGradient id="paint2_linear_1749_7561" x1="430.341" y1="19.7227" x2="415.827" y2="57.3491" gradientUnits="userSpaceOnUse">
<stop stop-color="#A22DFF"/>
<stop offset="1" stop-color="#FF95DB"/>
</linearGradient>
<linearGradient id="paint3_linear_1749_7561" x1="427.696" y1="131.414" x2="494.696" y2="131.414" gradientUnits="userSpaceOnUse">
<stop stop-color="#F857A6"/>
<stop offset="1" stop-color="#DDFF95"/>
</linearGradient>
<linearGradient id="paint4_linear_1749_7561" x1="56.1879" y1="50.7448" x2="48.7554" y2="68.5826" gradientUnits="userSpaceOnUse">
<stop stop-color="#FF2D92"/>
<stop offset="1" stop-color="#FFA25F"/>
</linearGradient>
<linearGradient id="paint5_linear_1749_7561" x1="-23.2114" y1="51.8014" x2="-41.4159" y2="98.9937" gradientUnits="userSpaceOnUse">
<stop stop-color="#A22DFF"/>
<stop offset="1" stop-color="#FF95DB"/>
</linearGradient>
<linearGradient id="paint6_linear_1749_7561" x1="407.59" y1="190.591" x2="425.59" y2="190.591" gradientUnits="userSpaceOnUse">
<stop stop-color="#EC008C"/>
<stop offset="1" stop-color="#FC6767"/>
</linearGradient>
</defs>
</svg>
